:SAMPLES-PER-SECOND 30
:FULLY-SPECIFIED
:DEGREES
32
root  11.4389 39.457 -1.32779 -25.0357 84.0374 -24.4731
RightUpLeg  -1.20564 4.2135 9.73492
RightLeg  13.6328 10.76 -0.493281
RightFoot  -6.08499 0.506135 -8.24726
RightToes  -6.98493e-010 -1.59028e-015 9.93923e-017
Spine  -0.665414 1.56854 9.8238
Spine1  10.6808 3.25015 -5.77185
HEad  -14.1453 0.973956 3.31223
LeftShoulder1  9.93923e-017 0 1.22299e-017
LeftArm  3.51593 50.9735 -69.1452
LeftForeArm  -1.20421 -5.60988 -6.75195
LeftHand  0.997384 7.07132 -6.596
RightShoulder  1.98785e-016 -4.96962e-017 1.55301e-017
RightArm  12.9032 -3.99308 89.3533
RightForeArm  -36.3234 51.2971 -51.52
RightHand  1.52171 -11.9065 -8.55724
LeftUpLeg  -31.0834 -4.54938 2.69051
LeftLeg  44.9908 -9.20466 2.22052
LeftFoot  7.81153 0.490534 -2.49245
LeftToes  -1.90082e-010 4.30011e-012 -7.87804e-012
33
root  13.4169 39.4122 -1.28595 -22.5576 82.1302 -22.5983
RightUpLeg  2.17145 3.57695 9.63085
RightLeg  12.3545 13.4079 0.192613
RightFoot  -7.48049 0.387252 -7.85813
RightToes  -6.98493e-010 -1.59028e-015 9.93923e-017
Spine  -1.3899 3.01043 12.2127
Spine1  11.0013 4.98308 -7.68371
HEad  -14.2213 0.0336086 3.18929
LeftShoulder1  9.93923e-017 0 1.22299e-017
LeftArm  11.3671 56.6228 -63.7358
LeftForeArm  -6.76615 -8.00792 -6.10028
LeftHand  0.978865 6.83002 -7.13587
RightShoulder  1.98785e-016 -4.96962e-017 1.55301e-017
RightArm  12.8677 1.2575 88.1261
RightForeArm  -39.1083 53.135 -54.9952
RightHand  1.55578 -12.2526 -8.07623
LeftUpLeg  -31.9965 -2.00789 2.58765
LeftLeg  33.6353 -11.1928 -0.648051
LeftFoot  6.8849 0.522731 -2.8049
LeftToes  -1.90082e-010 4.30011e-012 -7.87804e-012
34
root  15.3755 39.2812 -1.23897 -21.6642 81.2983 -22.073
RightUpLeg  5.91653 2.58731 8.80847
RightLeg  10.6185 15.808 1.10506
RightFoot  -8.46558 0.275669 -6.82946
RightToes  -6.98493e-010 -1.59028e-015 9.93923e-017
Spine  -1.85404 4.00427 13.2284
Spine1  11.2681 6.09759 -8.69051
HEad  -13.788 -0.827004 3.29114
LeftShoulder1  9.93923e-017 0 1.22299e-017
LeftArm  16.8074 61.0443 -57.7637
LeftForeArm  -8.21983 -10.5819 -4.54173
LeftHand  0.966233 6.62205 -7.97156
RightShoulder  1.98785e-016 -4.96962e-017 1.55301e-017
RightArm  12.75 4.77786 86.7854
RightForeArm  -40.2699 54.0127 -56.8924
RightHand  1.61854 -12.5683 -8.25946
LeftUpLeg  -31.4315 -0.945657 2.24384
LeftLeg  20.2872 -11.0478 -1.16544
LeftFoot  5.69522 0.73974 -4.32357
LeftToes  -1.90082e-010 4.30011e-012 -7.87804e-012
35
root  17.3406 39.087 -1.2019 -22.2682 81.1397 -22.5106
RightUpLeg  9.83085 1.63256 7.9811
RightLeg  9.49207 17.5334 1.70306
RightFoot  -8.60241 0.236825 -6.03969
RightToes  -6.98493e-010 -1.59028e-015 9.93923e-017
Spine  -1.96815 4.55087 13.7138
Spine1  11.7847 6.87874 -9.25633
HEad  -13.357 -1.50021 3.34451
LeftShoulder1  9.93923e-017 0 1.22299e-017
LeftArm  18.8864 63.7397 -52.2366
LeftForeArm  -7.10623 -10.4744 -4.17459
LeftHand  0.970258 6.64807 -8.4387
RightShoulder  1.98785e-016 -4.96962e-017 1.55301e-017
RightArm  12.7579 6.58546 85.6324
RightForeArm  -39.8391 54.0364 -57.001
RightHand  1.67217 -12.6686 -8.90604
LeftUpLeg  -29.3872 -1.28054 2.11304
LeftLeg  7.71602 -7.55479 -0.687372
LeftFoot  2.44849 0.807917 -5.71698
LeftToes  -1.90082e-010 4.30011e-012 -7.87804e-012
36
root  19.4135 38.7899 -1.16463 -21.6708 80.8761 -21.6706
RightUpLeg  13.2668 1.29592 7.38258
RightLeg  9.87887 18.2588 1.6791
RightFoot  -9.09783 0.185098 -5.25563
RightToes  -6.98493e-010 -1.59028e-015 9.93923e-017
Spine  -2.51062 5.01721 13.8498
Spine1  12.8978 7.68178 -9.63573
HEad  -13.0819 -1.85192 3.31777
LeftShoulder1  9.93923e-017 0 1.22299e-017
LeftArm  17.1887 64.9926 -48.0807
LeftForeArm  -4.22189 -8.34707 -4.73441
LeftHand  0.986325 6.90937 -7.7897
RightShoulder  1.98785e-016 -4.96962e-017 1.55301e-017
RightArm  12.7568 6.56663 85.1693
RightForeArm  -38.4455 53.3761 -55.6154
RightHand  1.70395 -12.6665 -9.46834
LeftUpLeg  -27.3829 -1.67364 1.67499
LeftLeg  0.310006 -3.47055 -0.362338
LeftFoot  -0.702471 0.567875 -5.09143
LeftToes  -1.90082e-010 4.30011e-012 -7.87804e-012
37
root  21.606 38.3715 -1.11216 -15.8757 80.5036 -16.1927
RightUpLeg  15.3383 1.65622 6.04403
RightLeg  12.0944 18.2357 1.82455
RightFoot  -10.0365 0.0927702 -3.31226
RightToes  -6.98493e-010 -1.59028e-015 9.93923e-017
Spine  -3.9634 5.55858 12.5052
Spine1  14.1294 8.31779 -9.55472
HEad  -12.9746 -2.01865 3.65286
LeftShoulder1  9.93923e-017 0 1.22299e-017
LeftArm  14.0403 65.5123 -45.5969
LeftForeArm  -1.82078 -5.79174 -5.20877
LeftHand  1.00278 7.14353 -5.87115
RightShoulder  1.98785e-016 -4.96962e-017 1.55301e-017
RightArm  12.5972 4.28053 85.6295
RightForeArm  -36.9064 52.3346 -53.5234
RightHand  1.7158 -12.6581 -9.70292
LeftUpLeg  -27.0979 -2.63525 0.777646
LeftLeg  0.3741 -0.119538 0.433045
LeftFoot  0.680994 0.36923 -3.05397
LeftToes  -1.90082e-010 4.30011e-012 -7.87804e-012
38
root  23.8479 37.8677 -1.05589 -5.31468 80.513 -6.05336
RightUpLeg  15.4825 1.73278 3.15478
RightLeg  17.6963 18.5569 3.39165
RightFoot  -8.99659 -0.00146278 -0.149448
RightToes  -6.98493e-010 -1.59028e-015 9.93923e-017
Spine  -5.10159 5.73127 9.41638
Spine1  14.4542 8.32229 -9.03602
HEad  -13.3292 -2.31486 4.64906
LeftShoulder1  9.93923e-017 0 1.22299e-017
LeftArm  10.128 65.2312 -45.378
LeftForeArm  -0.901615 -3.5288 -5.42687
LeftHand  1.01862 7.27991 -3.87216
RightShoulder  1.98785e-016 -4.96962e-017 1.55301e-017
RightArm  12.3234 -0.396902 86.8928
RightForeArm  -35.4198 50.9843 -51.0082
RightHand  1.73082 -12.6765 -9.90692
LeftUpLeg  -28.2144 -4.28706 -0.689022
LeftLeg  6.16125 1.89299 1.87515
LeftFoot  6.44979 0.17026 -0.882185
LeftToes  -1.90082e-010 4.30011e-012 -7.87804e-012
39
root  25.9774 37.4175 -1.02248 8.15599 81.0709 7.87462
RightUpLeg  13.7557 -0.159787 -0.96637
RightLeg  27.6269 20.0565 6.08503
RightFoot  -2.05691 -0.298936 2.96298
RightToes  -6.98493e-010 -1.59028e-015 9.93923e-017
Spine  -4.23174 5.14209 5.64543
Spine1  13.7657 7.59629 -8.73581
HEad  -14.2939 -2.76542 5.81898
LeftShoulder1  9.93923e-017 0 1.22299e-017
LeftArm  4.02289 63.2413 -48.7979
LeftForeArm  -0.70142 -1.76432 -5.4916
LeftHand  1.04536 7.52364 -3.42161
RightShoulder  1.98785e-016 -4.96962e-017 1.55301e-017
RightArm  12.2155 -6.70725 88.7591
RightForeArm  -33.2391 48.6772 -47.1972
RightHand  1.76068 -12.6924 -10.3775
LeftUpLeg  -29.0221 -6.55558 -2.4282
LeftLeg  14.0164 3.10599 3.16219
LeftFoot  10.2708 -0.13517 0.822872
LeftToes  -1.90082e-010 4.30011e-012 -7.87804e-012
40
root  27.8686 37.076 -1.01944 22.7515 81.4997 23.6422
RightUpLeg  9.99071 -1.17905 -4.36612
RightLeg  40.0809 18.6475 7.74284
RightFoot  10.1574 -1.15748 5.58805
RightToes  -6.98493e-010 -1.59028e-015 9.93923e-017
Spine  -1.84497 4.22766 2.32109
Spine1  13.1293 6.55222 -9.10769
HEad  -15.2329 -3.00251 6.24882
LeftShoulder1  9.93923e-017 0 1.22299e-017
LeftArm  -4.13389 58.9175 -55.4443
LeftForeArm  0.642255 -1.63387 -5.05349
LeftHand  1.07133 7.81689 -4.56138
RightShoulder  1.98785e-016 -4.96962e-017 1.55301e-017
RightArm  12.8238 -13.5411 90.9246
RightForeArm  -30.1874 44.3331 -41.2893
RightHand  1.77389 -12.6099 -10.883
LeftUpLeg  -29.0113 -6.93245 -5.41963
LeftLeg  21.9119 1.98009 4.80544
LeftFoot  7.18317 -0.358069 2.1145
LeftToes  -1.90082e-010 4.30011e-012 -7.87804e-012
41
root  29.572 36.8934 -1.02298 33.892 81.2791 35.5145
RightUpLeg  4.16552 -0.593013 -6.1801
RightLeg  51.3078 14.3289 5.39972
RightFoot  19.3784 -2.19876 7.62034
RightToes  -6.98493e-010 -1.59028e-015 9.93923e-017
Spine  -0.0378389 3.556 -0.223404
Spine1  13.0476 5.57657 -9.72075
HEad  -15.1459 -2.6975 5.64135
LeftShoulder1  9.93923e-017 0 1.22299e-017
LeftArm  -11.4295 52.9887 -62.8189
LeftForeArm  2.09805 -1.50388 -4.87359
LeftHand  1.06053 7.75954 -5.54883
RightShoulder  1.98785e-016 -4.96962e-017 1.55301e-017
RightArm  15.2228 -20.4014 92.7565
RightForeArm  -28.3518 37.6552 -34.2015
RightHand  1.74479 -12.4172 -11.0267
LeftUpLeg  -28.1977 -6.88897 -8.01506
LeftLeg  27.6196 0.934339 6.15234
LeftFoot  0.896999 -0.366539 2.90987
LeftToes  -1.90082e-010 4.30011e-012 -7.87804e-012
42
root  31.3453 37.0292 -1.01327 38.0054 81.3171 39.5293
RightUpLeg  -2.75614 0.341706 -6.27999
RightLeg  59.8702 10.5099 0.177216
RightFoot  20.2358 -2.16667 7.20932
RightToes  -6.98493e-010 -1.59028e-015 9.93923e-017
Spine  0.264554 2.93871 -1.56371
Spine1  12.6244 4.4989 -9.64013
HEad  -13.7317 -1.93609 4.67331
LeftShoulder1  9.93923e-017 0 1.22299e-017
LeftArm  -15.4338 47.029 -69.2105
LeftForeArm  0.850983 -1.94282 -5.24277
LeftHand  1.01381 7.25848 -5.14618
RightShoulder  1.98785e-016 -4.96962e-017 1.55301e-017
RightArm  21.3704 -27.3448 93.564
RightForeArm  -31.3364 29.8014 -27.56
RightHand  1.6945 -12.2773 -10.5953
LeftUpLeg  -26.0197 -7.15184 -9.11266
LeftLeg  29.5287 0.542794 6.55479
LeftFoot  -3.4669 -0.241306 2.63502
LeftToes  -1.90082e-010 4.30011e-012 -7.87804e-012
43
root  33.2674 37.4815 -0.979039 38.9392 82.5401 40.2778
RightUpLeg  -9.23468 0.638283 -5.02146
RightLeg  65.2951 8.86507 -4.05269
RightFoot  15.9283 -1.06403 4.088
RightToes  -6.98493e-010 -1.59028e-015 9.93923e-017
Spine  0.0692076 1.93232 -2.02644
Spine1  11.412 2.92262 -8.46313
HEad  -11.6671 -1.1165 4.11959
LeftShoulder1  9.93923e-017 0 1.22299e-017
LeftArm  -12.5989 41.8348 -74.3306
LeftForeArm  -6.55061 -6.72489 -4.37829
LeftHand  0.948648 6.63049 -3.89802
RightShoulder  1.98785e-016 -4.96962e-017 1.55301e-017
RightArm  32.2237 -34.3094 92.9705
RightForeArm  -40.8297 23.0085 -21.8835
RightHand  1.61045 -12.2707 -9.05818
LeftUpLeg  -22.2186 -8.44385 -8.83126
LeftLeg  28.5153 0.836259 6.3786
LeftFoot  -5.4002 -0.12748 1.59386
LeftToes  -1.90082e-010 4.30011e-012 -7.87804e-012
44
root  35.2214 38.005 -0.900995 42.5289 84.706 44.1245
RightUpLeg  -14.4822 0.351334 -3.29507
RightLeg  67.5283 8.72868 -5.14093
RightFoot  11.6206 -0.335982 1.58236
RightToes  -6.98493e-010 -1.59028e-015 9.93923e-017
Spine  0.242263 0.57064 -2.80928
Spine1  10.0686 0.816926 -6.3327
HEad  -9.86999 -0.543732 3.96267
LeftShoulder1  9.93923e-017 0 1.22299e-017
LeftArm  4.8775 37.1953 -78.5283
LeftForeArm  -26.9753 -18.9484 4.14712
LeftHand  0.884898 6.13066 -2.67223
RightShoulder  1.98785e-016 -4.96962e-017 1.55301e-017
RightArm  39.3407 -41.0089 90.4089
RightForeArm  -46.8436 19.7457 -14.6573
RightHand  1.45451 -12.2947 -6.06358
LeftUpLeg  -17.4625 -10.4425 -8.17386
LeftLeg  26.5757 1.22243 6.13668
LeftFoot  -7.10118 -0.070906 0.924842
LeftToes  -1.90082e-010 4.30011e-012 -7.87804e-012
